<svg
    xmlns="http://www.w3.org/2000/svg"
    xmlns:dc="http://purl.org/dc/elements/1.1/"
    viewBox="-4 -4 38 50"
  >
  <metadata>
    <dc:title>Orthodox Cross</dc:title>
    <dc:creator>dani31x</dc:creator>
    <dc:rights>
      This work is licensed under the MIT License.
      For more information, visit https://opensource.org/licenses/MIT
    </dc:rights>
  </metadata>
  <mask id="mask">
    <rect x="-4" y="-4" width="100%" height="100%" stroke="white" fill="white" />

    <g stroke="black" stroke-width="3.8" stroke-linecap="round" stroke-linejoin="round">
      <line x1="4" y1="15" x2="26" y2="15" />
      <line x1="15" y1="4" x2="15" y2="38" />

      <path d="M 15 0 Q 15 4, 11 4 Q 15 4, 15 8 Q 15 4, 19 4 Q 15 4, 15 0" fill="none" />
      <path d="M 15 34 Q 15 38, 11 38 Q 15 38, 15 42 Q 15 38, 19 38 Q 15 38, 15 34" fill="none" />

      <path d="M 0 15 Q 4 15, 4 11 Q 4 15, 8 15 Q 4 15, 4 19 Q 4 15, 0 15" fill="none" />
      <path d="M 22 15 Q 26 15, 26 11 Q 26 15, 30 15 Q 26 15, 26 19 Q 26 15, 22 15" fill="none" />
    </g>
  </mask>

  <g stroke="white" stroke-width="7" stroke-linecap="round" mask="url(#mask)">
    <rect x="-4" y="-4" width="100%" height="100%" stroke="transparent" fill="transparent" />
    <line x1="0" y1="15" x2="30" y2="15" />
    <line x1="15" y1="0" x2="15" y2="42" />

    <line x1="11" y1="4" x2="19" y2="4" />
    <line x1="11" y1="38" x2="19" y2="38" />

    <line x1="4" y1="11" x2="4" y2="19" />
    <line x1="26" y1="11" x2="26" y2="19" />
  </g>
</svg>
